<?xml version="1.0" encoding="UTF-8" standalone="no"?>
<!-- Created with Inkscape (http://www.inkscape.org/) -->

<svg
   width="100"
   height="25"
   viewBox="0 0 100 25"
   version="1.1"
   id="svg18379"
   inkscape:version="1.1 (c68e22c387, 2021-05-23)"
   sodipodi:docname="Sheep_in_the_Big_City_logo.svg"
   xmlns:inkscape="http://www.inkscape.org/namespaces/inkscape"
   xmlns:sodipodi="http://sodipodi.sourceforge.net/DTD/sodipodi-0.dtd"
   xmlns="http://www.w3.org/2000/svg"
   xmlns:svg="http://www.w3.org/2000/svg"
   xmlns:rdf="http://www.w3.org/1999/02/22-rdf-syntax-ns#"
   xmlns:cc="http://creativecommons.org/ns#"
   xmlns:dc="http://purl.org/dc/elements/1.1/">
  <title
     id="title522">Volaris</title>
  <sodipodi:namedview
     id="namedview18381"
     pagecolor="#ffffff"
     bordercolor="#111111"
     borderopacity="1"
     inkscape:pageshadow="0"
     inkscape:pageopacity="0"
     inkscape:pagecheckerboard="1"
     inkscape:document-units="px"
     showgrid="false"
     units="px"
     inkscape:zoom="11.313708"
     inkscape:cx="57.585009"
     inkscape:cy="14.893437"
     inkscape:window-width="1920"
     inkscape:window-height="1009"
     inkscape:window-x="-8"
     inkscape:window-y="-8"
     inkscape:window-maximized="1"
     inkscape:current-layer="layer1"
     height="75px" />
  <defs
     id="defs18376" />
  <g
     inkscape:label="Capa 1"
     inkscape:groupmode="layer"
     id="layer1">
    <g
       id="Page-1"
       stroke="none"
       stroke-width="1"
       fill="none"
       fill-rule="evenodd"
       transform="matrix(0.75548743,0,0,0.75548743,0.40249024,0.54910492)">
      <g
         id="Desktop-HD"
         transform="translate(-165,-12)">
        <g
           id="Header/Brand_header/Account">
          <g
             id="Header/Brand_header">
            <g
               id="Logo"
               transform="translate(165,12)">
              <g
                 id="Group"
                 transform="translate(0,6.054054)"
                 fill="#231f20">
                <path
                   id="Fill-10"
                   style="stroke-width:0.755487"
                   d="M 26.376953,4.9453125 V 20.949219 h 3.273438 V 4.9453125 Z m 28.451172,0 v 3.2148437 h 3.269531 V 4.9453125 Z M 18.675781,10.40625 c -3.270239,0 -5.886719,2.120023 -5.886719,5.400391 1e-6,3.280367 2.61648,5.396484 5.886719,5.396484 3.270567,0 5.886719,-2.116117 5.886719,-5.396484 0,-3.280368 -2.616152,-5.400391 -5.886719,-5.400391 z m 17.671875,0 c -3.011169,0 -4.839844,2.626094 -4.839844,5.486328 0,3.112118 2.071377,5.310547 5.210938,5.310547 1.483532,0 2.74722,-0.867452 3.248047,-1.607422 h 0.04492 v 1.353516 h 3.009765 V 10.660156 H 39.75 v 1.09961 H 39.70508 C 38.966742,10.765953 37.700183,10.40625 36.347656,10.40625 Z m 28.332032,0 c -2.223828,0 -4.447266,1.05869 -4.447266,3.472656 0,3.823991 5.568359,2.394315 5.568359,4.171875 0,0.549178 -0.768816,0.820313 -1.509765,0.820313 -0.982052,0 -1.852862,-0.434929 -2.486328,-1.058594 l -1.91211,1.914062 c 1.112731,1.103257 2.689069,1.476563 4.242188,1.476563 2.268258,0 4.886718,-0.760733 4.886718,-3.384766 0,-3.783481 -5.572265,-2.513637 -5.572265,-4.15039 0,-0.614191 0.680985,-0.927735 1.224609,-0.927735 0.785381,0 1.560004,0.378073 2.072266,0.88086 l 1.859375,-1.861328 C 67.624724,10.745371 66.075012,10.40625 64.679688,10.40625 Z m -12.716797,0.002 c -1.439102,0 -2.352956,0.655333 -3.050782,1.904297 h -0.04297 v -1.652344 h -3.273438 v 10.289063 h 3.273438 v -4.296875 c 0,-2.054273 0.306156,-3.451172 2.791015,-3.451172 0.479265,0 0.936176,0.0845 1.394532,0.21289 V 10.511766 C 52.750857,10.426826 52.33467,10.40825 51.962889,10.40825 Z M 0.40234375,10.660156 4.7871094,20.949219 H 8.2539062 L 12.441406,10.660156 H 9.1464844 l -2.484375,6.986328 H 6.6191406 L 3.9375,10.660156 Z m 54.42578125,0 v 10.289063 h 3.269531 V 10.660156 Z m -36.152344,2.541016 c 1.635121,0 2.615235,1.060191 2.615235,2.605469 0,1.544951 -0.980114,2.601562 -2.615235,2.601562 -1.635446,0 -2.617187,-1.056611 -2.617187,-2.601562 0,-1.545278 0.981741,-2.605469 2.617187,-2.605469 z m 18.71875,0 c 1.63512,0 2.617188,1.059864 2.617188,2.605469 0,1.544624 -0.982068,2.601562 -2.617188,2.601562 -1.637406,0 -2.615234,-1.056938 -2.615234,-2.601562 0,-1.545605 0.977828,-2.605469 2.615234,-2.605469 z"
                   transform="matrix(1.3236488,0,0,1.3236488,-0.53275571,-6.5468858)" />
              </g>
              <g
                 id="Estrella"
                 transform="translate(99.282984)">
                <polygon
                   id="Fill-12"
                   fill="#eeefef"
                   points="13.700757,4.5392432 18.239568,4.5392432 18.239568,0 13.700757,0 " />
                <polygon
                   id="Fill-13"
                   fill="#b5d5f0"
                   points="13.700757,9.0780541 18.239568,9.0780541 18.239568,4.5392432 13.700757,4.5392432 " />
                <polygon
                   id="Fill-14"
                   fill="#6cadde"
                   points="13.700757,13.616865 18.239568,13.616865 18.239568,9.0780541 13.700757,9.0780541 " />
                <polygon
                   id="Fill-15"
                   fill="#b5d5f0"
                   points="9.1619459,13.616865 13.700757,13.616865 13.700757,9.0780541 9.1619459,9.0780541 " />
                <polygon
                   id="Fill-16"
                   fill="#d6a6cc"
                   points="9.1619459,22.695351 13.700757,22.695351 13.700757,18.15654 9.1619459,18.15654 " />
                <polygon
                   id="Fill-17"
                   fill="#b5d5f0"
                   points="18.239568,13.616865 22.778378,13.616865 22.778378,9.0780541 18.239568,9.0780541 " />
                <polygon
                   id="Fill-18"
                   fill="#dae7a2"
                   points="18.239568,22.695351 22.778378,22.695351 22.778378,18.15654 18.239568,18.15654 " />
                <polygon
                   id="Fill-19"
                   fill="#231f20"
                   points="13.700757,18.156108 18.239568,18.156108 18.239568,13.616432 13.700757,13.616432 " />
                <polygon
                   id="Fill-20"
                   fill="#91268f"
                   points="13.700757,22.695351 18.239568,22.695351 18.239568,18.15654 13.700757,18.15654 " />
                <polygon
                   id="Fill-21"
                   fill="#d6a6cc"
                   points="13.700757,27.234162 18.239568,27.234162 18.239568,22.695351 13.700757,22.695351 " />
                <polygon
                   id="Fill-22"
                   fill="#eeefef"
                   points="13.700757,31.772973 18.239568,31.772973 18.239568,27.234162 13.700757,27.234162 " />
                <polygon
                   id="Fill-23"
                   fill="#eeefef"
                   points="0.083891892,18.156108 4.6227027,18.156108 4.6227027,13.616432 0.083891892,13.616432 " />
                <polygon
                   id="Fill-24"
                   fill="#d6a6cc"
                   points="4.6227027,18.156108 9.1619459,18.156108 9.1619459,13.616432 4.6227027,13.616432 " />
                <polygon
                   id="Fill-25"
                   fill="#91268f"
                   points="9.1619459,18.156108 13.700757,18.156108 13.700757,13.616432 9.1619459,13.616432 " />
                <polygon
                   id="Fill-26"
                   fill="#8dc63f"
                   points="18.239568,18.156108 22.778378,18.156108 22.778378,13.616432 18.239568,13.616432 " />
                <polygon
                   id="Fill-27"
                   fill="#dae7a2"
                   points="22.778378,18.156108 27.317189,18.156108 27.317189,13.616432 22.778378,13.616432 " />
                <polygon
                   id="Fill-28"
                   fill="#eeefef"
                   points="27.317189,18.156108 31.856,18.156108 31.856,13.616432 27.317189,13.616432 " />
              </g>
            </g>
          </g>
        </g>
      </g>
    </g>
  </g>
  <metadata
     id="metadata18907">
    <rdf:RDF>
      <cc:Work
         rdf:about="">
        <dc:date>13-ene-2022</dc:date>
        <cc:license
           rdf:resource="http://scripts.sil.org/OFL" />
        <dc:title>Volaris</dc:title>
      </cc:Work>
      <cc:License
         rdf:about="http://scripts.sil.org/OFL">
        <cc:permits
           rdf:resource="http://scripts.sil.org/pub/OFL/Reproduction" />
        <cc:permits
           rdf:resource="http://scripts.sil.org/pub/OFL/Distribution" />
        <cc:permits
           rdf:resource="http://scripts.sil.org/pub/OFL/Embedding" />
        <cc:permits
           rdf:resource="http://scripts.sil.org/pub/OFL/DerivativeWorks" />
        <cc:requires
           rdf:resource="http://scripts.sil.org/pub/OFL/Notice" />
        <cc:requires
           rdf:resource="http://scripts.sil.org/pub/OFL/Attribution" />
        <cc:requires
           rdf:resource="http://scripts.sil.org/pub/OFL/ShareAlike" />
        <cc:requires
           rdf:resource="http://scripts.sil.org/pub/OFL/DerivativeRenaming" />
        <cc:requires
           rdf:resource="http://scripts.sil.org/pub/OFL/BundlingWhenSelling" />
      </cc:License>
    </rdf:RDF>
  </metadata>
</svg>
